<svg version="1.0" xmlns="http://www.w3.org/2000/svg"
      width="154.34pt" height="154.11pt" viewBox="15 0 154.34 64.11"
      preserveAspectRatio="xMidYMid meet">

  <g transform="translate(0.000000,85.11) scale(0.0311,-0.0311)">
    <path d="M3365 3006 c-130 -48 -252 -214 -213 -288 8 -16 26 -18 167 -18 l159
              0 53 43 c116 94 255 151 424 174 66 9 122 18 124 20 11 8 -54 61 -88 72 -52
              15 -584 13 -626 -3z" fill="#195E9A"  />
    <path d="M3980 2844 c-61 -10 -180 -49 -235 -77 -70 -35 -165 -98 -184 -121
              -12 -14 -45 -16 -247 -16 l-234 0 -5 23 c-3 12 -6 48 -7 79 l-3 57 -40 -27
              c-43 -29 -56 -40 -107 -88 -49 -45 -138 -150 -138 -162 0 -5 -6 -14 -13 -20
              -16 -13 -76 -135 -105 -212 -63 -166 -98 -445 -82 -646 7 -87 12 -109 43 -167
              55 -104 60 -129 62 -287 1 -127 4 -151 23 -189 12 -25 22 -48 22 -53 0 -14 63
              -67 105 -87 51 -25 192 -39 224 -22 36 20 25 62 -19 75 -81 25 -109 66 -121
              177 -14 122 -45 227 -99 334 -41 80 -49 109 -60 193 -11 86 -11 114 4 207 17
              108 39 171 56 160 6 -4 10 -13 10 -21 0 -8 11 -32 25 -54 14 -22 25 -43 25
              -46 0 -15 72 -114 96 -133 24 -19 41 -21 151 -21 127 0 153 6 205 48 41 33
              163 139 203 176 97 90 204 124 332 106 132 -18 203 -87 225 -220 20 -116 16
              -614 -6 -704 -32 -135 -118 -237 -253 -302 l-73 -35 0 -44 c0 -42 1 -44 38
              -54 90 -26 289 -3 378 44 16 8 33 15 37 15 7 0 99 50 175 95 54 32 174 114
              215 149 l49 39 -51 14 c-77 19 -127 49 -184 107 -64 65 -66 68 -104 141 -140
              267 -83 634 124 801 95 77 119 87 224 92 62 3 95 0 122 -12 36 -15 37 -14 37
              7 0 52 -88 260 -146 346 -16 24 -35 53 -43 65 -25 38 -165 156 -221 187 -100
              56 -194 82 -305 85 -55 1 -111 0 -125 -2z m-539 -394 c-31 -119 -61 -348 -61
              -468 l0 -22 -227 2 -228 3 -3 80 c-6 145 31 329 79 396 l21 29 211 -2 c183 -3
              211 -5 208 -18z" fill="#75BADB"  />
    <path d="M3048 2353 c-19 -23 -36 -106 -44 -215 l-7 -88 152 0 151 0 0 58 c0
              52 10 143 25 230 l6 32 -134 0 c-115 0 -136 -2 -149 -17z" fill="#195E9A"  />
    <path d="M4543 2064 c-91 -33 -190 -171 -219 -308 -29 -133 -13 -325 35 -426
              80 -167 180 -234 322 -215 42 6 62 17 112 59 72 60 109 120 145 230 50 155 28
              372 -53 511 -81 138 -212 195 -342 149z m206 -211 c15 -16 39 -53 52 -83 21
              -48 24 -70 23 -170 0 -104 -3 -121 -28 -176 -117 -250 -302 2 -230 312 29 129
              114 182 183 117z" fill="#75BADB"  />
  </g>
</svg>