<svg version="1.0" xmlns="http://www.w3.org/2000/svg" style="max-width: 80%" width="573.5pt" height="108.5pt" viewBox="0 0 573.5 108.5" preserveAspectRatio="xMidYMid meet">

                                <g transform="translate(0.000000,108.5) scale(0.0500000,-0.0500000)" stroke="white" stroke-width="18">

                                    <path d="M11040 1941 c-84 -26 -172 -102 -206 -178 -24 -53 -25 -223 -1 -275
                                                90 -199 387 -250 539 -93 65 68 82 115 82 230 0 86 -3 107 -24 150 -56 115
                                                -159 176 -293 174 -40 0 -83 -4 -97 -8z m188 -77 c106 -44 170 -178 141 -297
                                                -21 -89 -62 -141 -139 -176 -111 -51 -256 3 -311 116 -64 132 -1 311 126 357
                                                53 19 137 20 183 0z" fill="#A5A3AB" stroke="none" opacity="0.3"></path>
                                    <path d="M11010 1625 l0 -175 35 0 35 0 0 75 c0 67 2 75 19 75 18 0 50 -43 90
                                                -122 12 -23 21 -28 53 -28 44 0 45 -2 -19 97 -39 61 -39 63 -13 63 34 0 70 44
                                                70 85 0 81 -40 105 -175 105 l-95 0 0 -175z m171 115 c20 -11 27 -64 9 -75 -5
                                                -3 -32 -9 -60 -12 l-50 -6 0 52 0 51 41 0 c22 0 49 -5 60 -10z" fill="#A5A3AB" stroke="none" opacity="0.3"></path>

                                    <path d="M1830 1055 l0 -715 605 0 605 0 0 170 0 170 -430 0 -430 0 0 100 0
                                                100 338 0 339 0 6 155 c4 85 4 161 1 170 -5 13 -50 15 -345 15 l-339 0 0 105
                                                0 105 430 0 430 0 0 170 0 170 -605 0 -605 0 0 -715z" fill="#195E9A"></path>
                                    <path d="M3710 1755 c-254 -43 -478 -213 -578 -436 -43 -95 -56 -162 -55 -279
                                                0 -85 5 -119 26 -181 123 -363 507 -576 910 -504 199 35 387 147 500 298 30
                                                40 61 86 70 104 50 95 84 251 72 323 l-7 40 -399 0 -399 0 0 -145 0 -145 180
                                                0 c99 0 180 -4 180 -9 0 -12 -67 -71 -111 -99 -63 -39 -155 -62 -244 -62 -175
                                                0 -325 91 -398 240 -87 178 -2 402 189 498 167 85 396 60 516 -56 l37 -35 43
                                                38 c24 21 48 43 53 49 6 6 42 41 81 78 l71 67 -31 29 c-165 154 -454 230 -706
                                                187z" fill="#195E9A"></path>
                                    <path d="M5061 1608 c-35 -90 -74 -190 -86 -223 -13 -33 -65 -166 -115 -295
                                                -51 -129 -100 -255 -110 -280 -9 -25 -54 -139 -99 -254 -44 -115 -81 -210 -81
                                                -212 0 -2 84 -4 188 -4 l187 0 40 115 40 115 285 0 285 0 45 -115 44 -115 184
                                                0 183 0 -7 23 c-6 21 -79 212 -109 287 -14 37 -216 569 -258 680 -79 212 -140
                                                370 -154 403 l-16 37 -192 0 -191 0 -63 -162z m259 -360 c0 -13 73 -195 100
                                                -248 10 -19 21 -45 24 -57 l7 -23 -135 0 c-91 0 -136 4 -136 11 0 6 11 38 24
                                                72 13 34 41 108 62 164 20 56 41 100 45 97 5 -3 9 -10 9 -16z" fill="#195E9A"></path>
                                    <path d="M8247 1748 c-4 -20 -143 -381 -252 -658 -18 -47 -45 -116 -60 -155
                                                -14 -38 -37 -97 -50 -130 -13 -33 -47 -121 -75 -195 -28 -74 -63 -163 -76
                                                -197 -13 -34 -24 -64 -24 -67 0 -3 82 -6 183 -6 l183 0 27 72 c16 40 36 92 45
                                                115 l17 43 280 0 281 0 28 -63 c15 -34 37 -86 48 -114 l21 -53 183 0 184 0
                                                -15 33 c-8 17 -31 75 -50 127 -20 52 -49 129 -65 170 -16 41 -97 255 -180 475
                                                -83 220 -171 450 -195 510 l-43 110 -195 3 -195 2 -5 -22z m294 -705 c27 -61
                                                49 -114 49 -117 0 -3 -61 -6 -135 -6 -82 0 -135 4 -135 10 0 8 67 195 112 313
                                                l11 29 24 -59 c14 -32 47 -108 74 -170z" fill="#195E9A"></path>
                                    <path d="M10140 1430 c0 -187 -2 -340 -4 -340 -2 0 -107 82 -233 183 -246 195
                                                -253 201 -407 321 -55 44 -121 96 -146 116 -25 20 -51 40 -57 44 -10 6 -13
                                                -138 -13 -703 l0 -711 185 0 185 0 2 346 3 345 68 -53 c38 -29 173 -135 300
                                                -236 128 -100 276 -217 331 -260 54 -42 113 -89 131 -104 18 -16 35 -28 39
                                                -28 3 0 6 320 6 710 l0 710 -195 0 -195 0 0 -340z" fill="#195E9A"></path>
                                    <path d="M190 1050 l0 -710 180 0 180 0 0 400 c0 222 4 400 9 400 8 0 69 -28
                                                276 -124 l79 -38 41 21 c42 21 147 78 252 137 l63 35 0 -416 0 -415 189 0 190
                                                0 0 711 c1 678 0 710 -17 705 -21 -7 -208 -106 -650 -343 l-64 -34 -131 69
                                                c-194 102 -307 162 -352 187 -86 48 -233 125 -239 125 -3 0 -6 -319 -6 -710z" fill="#195E9A"></path>
                                    <path d="M6150 1050 l0 -710 185 0 185 0 0 401 0 400 21 -6 c11 -4 51 -22 88
                                                -40 37 -18 108 -52 157 -75 l89 -42 75 38 c41 22 118 63 170 91 52 29 101 53
                                                108 53 9 0 12 -89 12 -410 l0 -410 180 0 180 0 0 710 c0 391 -3 710 -8 710 -4
                                                0 -16 -6 -27 -13 -11 -8 -83 -47 -160 -87 -77 -40 -162 -86 -190 -100 -27 -15
                                                -90 -49 -140 -75 -49 -26 -114 -61 -144 -77 l-53 -28 -137 71 c-75 39 -163 86
                                                -196 104 -131 71 -386 205 -390 205 -3 0 -5 -319 -5 -710z" fill="#195E9A"></path>
                                </g>
                            </svg>