<svg width="512px" viewBox="0 0 512 512" xmlns="http://www.w3.org/2000/svg">
                                <g fill="#75BADB">
                                    <path d="m499.5 223.31h-18.81v-94.76c0-5.147-2.252-10.009-6.176-13.337l-53.189-45.158v-11.136c0-12.829-10.437-23.266-23.266-23.266-11.552 0-21.16 8.465-22.959 19.516h-238.2c-1.799-11.052-11.408-19.516-22.96-19.516-12.829 0-23.266 10.437-23.266 23.266v11.136l-53.185 45.155c-3.928 3.33-6.18 8.192-6.18 13.339v28.58c0 4.142 3.357 7.5 7.5 7.5s7.5-3.358 7.5-7.5v-28.58c0-.732.321-1.425.885-1.902l43.479-36.915v133.578h-44.359v-31.182c0-4.142-3.357-7.5-7.5-7.5s-7.5 3.358-7.5 7.5v31.182h-18.814c-6.893 0-12.5 5.607-12.5 12.5v54.96c0 6.893 5.607 12.5 12.5 12.5h18.814v115.113c0 9.649 7.851 17.5 17.5 17.5h23.083v27.963c0 6.893 5.607 12.5 12.5 12.5h47.704c6.893 0 12.5-5.607 12.5-12.5v-27.963h144.121c4.143 0 7.5-3.358 7.5-7.5s-3.357-7.5-7.5-7.5h-239.908c-1.379 0-2.5-1.122-2.5-2.5v-115.113h113.368v6.001c0 5.938 3.194 11.472 8.338 14.441l79.643 45.982c5.141 2.968 11.532 2.968 16.675 0l79.642-45.981c5.144-2.97 8.338-8.503 8.338-14.441v-6.001h113.368v115.113c0 1.378-1.121 2.5-2.5 2.5h-139.463c-4.143 0-7.5 3.358-7.5 7.5s3.357 7.5 7.5 7.5h43.676v27.963c0 6.893 5.607 12.5 12.5 12.5h47.704c6.893 0 12.5-5.607 12.5-12.5v-27.963h23.083c9.649 0 17.5-7.851 17.5-17.5v-115.114h18.814c6.893 0 12.5-5.607 12.5-12.5v-54.96c0-6.893-5.607-12.5-12.5-12.5zm-369.898 238.036h-42.705v-25.463h42.704v25.463zm295.501 0h-42.704v-25.463h42.704zm39.707-334.696c.56.475.881 1.167.881 1.9v94.76h-44.365v-133.578zm-66.75-75.996c4.558 0 8.266 3.708 8.266 8.266v164.39h-16.531v-164.391c-.001-4.557 3.707-8.265 8.265-8.265zm-54.081 152.214-79.642-45.981c-5.142-2.969-11.532-2.97-16.676 0l-79.642 45.981c-5.144 2.97-8.338 8.503-8.338 14.441v6.001h-22.477v-153.14h237.588v153.14h-22.477v-6.001c.002-5.938-3.192-11.472-8.336-14.441zm-238.305-143.949c0-4.558 3.708-8.266 8.266-8.266 4.559 0 8.267 3.708 8.267 8.266v164.391h-16.532v-164.391zm-90.674 229.351v-49.96h144.683v49.96zm322.317 21.001c0 .597-.321 1.153-.838 1.451l-79.641 45.981c-.518.299-1.161.298-1.677 0l-79.642-45.981c-.517-.298-.838-.854-.838-1.451v-91.962c0-.597.321-1.153.838-1.451l79.642-45.981c.259-.149.548-.224.838-.224s.579.075.838.224l79.642 45.981c.517.298.838.854.838 1.451zm159.683-21.001h-144.683v-49.96h144.683z"></path>
                                    <path d="m256 304.895c-4.143 0-7.5 3.358-7.5 7.5v1.876c0 4.142 3.357 7.5 7.5 7.5s7.5-3.358 7.5-7.5v-1.876c0-4.142-3.357-7.5-7.5-7.5z"></path>
                                </g>
                            </svg>